<?xml version="1.0" encoding="UTF-8" standalone="no"?>
<!-- Created with Inkscape (http://www.inkscape.org/) -->

<svg
   xmlns:dc="http://purl.org/dc/elements/1.1/"
   xmlns:cc="http://creativecommons.org/ns#"
   xmlns:rdf="http://www.w3.org/1999/02/22-rdf-syntax-ns#"
   xmlns:svg="http://www.w3.org/2000/svg"
   xmlns="http://www.w3.org/2000/svg"
   xmlns:sodipodi="http://sodipodi.sourceforge.net/DTD/sodipodi-0.dtd"
   xmlns:inkscape="http://www.inkscape.org/namespaces/inkscape"
   version="1.1"
   width="3028"
   height="787"
   id="svg3041"
   inkscape:version="0.48.5 r10040"
   sodipodi:docname="logo.svg">
  <sodipodi:namedview
     pagecolor="#ffffff"
     bordercolor="#666666"
     borderopacity="1"
     objecttolerance="10"
     gridtolerance="10"
     guidetolerance="10"
     inkscape:pageopacity="0"
     inkscape:pageshadow="2"
     inkscape:window-width="1920"
     inkscape:window-height="1063"
     id="namedview3099"
     showgrid="false"
     inkscape:zoom="0.41193407"
     inkscape:cx="1681.8552"
     inkscape:cy="595.59912"
     inkscape:window-x="0"
     inkscape:window-y="17"
     inkscape:window-maximized="0"
     inkscape:current-layer="svg3041" />
  <metadata
     id="metadata3047">
    <rdf:RDF>
      <cc:Work
         rdf:about="">
        <dc:format>image/svg+xml</dc:format>
        <dc:type
           rdf:resource="http://purl.org/dc/dcmitype/StillImage" />
        <dc:title />
      </cc:Work>
    </rdf:RDF>
  </metadata>
  <defs
     id="defs3045" />
  <g
     id="g3936">
    <path
       d="M 13.889908,553.18655 6.9449541,26.527522 82.181957,23.055045 C 99.258886,114.7824 139.14492,183.70064 173.62385,258.02599 199.90544,183.11569 221.74298,106.42777 232.65596,25.370029 l 68.29205,-1.157492 -4.62997,531.288993 -86.81192,-1.15749 C 227.81365,451.84807 240.47016,348.54481 237.28593,242.97859 203.11155,299.48579 179.69027,362.44485 160.89144,428.17737 148.64688,347.17251 118.0828,292.33839 84.496942,241.8211 99.938149,347.92855 113.66004,453.17635 116.90673,553.18654 z"
       id="path3071"
       style="fill:#2d572c;fill-opacity:1;stroke:none"
       inkscape:connector-curvature="0" />
    <path
       d="m 318.3104,554.34404 10.41743,-202.56117 c 26.21881,2.07288 33.42401,-7.26241 45.1422,-13.8899 -4.06891,73.81296 7.60235,144.47789 18.51988,215.29357 z"
       id="path3073"
       style="fill:#2d572c;fill-opacity:1;stroke:none"
       inkscape:connector-curvature="0" />
    <path
       d="m 362.56175,318.39693 a 30.675319,28.727678 0 1 1 2.73298,-2.12742"
       id="path3083"
       style="fill:#2d572c;fill-opacity:1;stroke:none"
       inkscape:connector-curvature="0" />
    <path
       d="m 407.43731,550.87155 c 12.57431,-54.45168 26.85489,-98.78694 18.51988,-305.57797 -34.84393,-7.42158 -65.15637,3.28277 -97.22936,6.94495 l 2.31498,-59.03211 90.28441,-9.25994 -9.25994,-167.836389 52.08715,-1.157493 c -0.66413,59.588705 -0.10449,116.729882 2.31499,170.151372 l 62.50459,-3.47247 1.15749,63.66208 c -8.41234,-5.06137 -24.76942,-5.35589 -48.61468,-1.1575 l 17.36239,306.73548 z"
       id="path3853"
       style="fill:#2d572c;fill-opacity:1;stroke:none"
       inkscape:connector-curvature="0" />
    <path
       d="M 528.974,553.18654 533.60398,20.74006 C 844.72083,-27.787784 893.87934,213.01052 671.34557,286.9633 L 824.13456,464.05963 746.58257,531.19419 622.73089,332.10551 621.5734,554.34404 z m 98.38686,-356.50764 -1.1575,-78.70948 c 103.27064,9.26095 76.16872,64.02633 1.1575,78.70948 z"
       style="fill:#ec7c26;fill-opacity:1;stroke:none;fill-rule:evenodd"
       id="path3857" />
    <path
       d="m 800.98471,329.79052 c 46.13434,-12.26391 86.17644,-64.12732 143.52905,-3.47248 l -3.47247,-37.03975 54.40214,2.31498 -12.73242,265.06575 -53.24465,1.15749 -1.15749,-27.77981 C 743.17343,658.93512 766.29175,308.7357 916.73395,414.28746 902.15998,387.09229 916.21997,340.80782 814.87462,371.46024 z m 86.66368,163.90921 a 23.149847,26.043577 0 1 1 2.06251,-1.92865"
       style="fill:#ec7c26;fill-opacity:1;stroke:none;fill-rule:evenodd"
       id="path3861" />
    <path
       d="M 1225.7844,550.87156 C 1207.731,253.93981 1204.4858,80.40906 1214.2095,14.952598 l -104.1743,1.157493 c 15.9498,92.906789 23.7898,190.679389 24.3073,292.845569 -202.67249,-105.114 -164.18402,379.33996 10.4174,202.56116 l 0,43.98471 z m -109.2799,-103.5936 a 38.196618,42.971194 0 1 1 3.4031,-3.18222"
       style="fill:#ec7c26;fill-opacity:1;stroke:none;fill-rule:evenodd"
       id="path3867" />
    <path
       d="m 1225.7844,438.5948 c -1.5154,182.4695 331.837,137.9453 217.6086,-79.86697 -13.6528,-26.03328 -49.7079,-63.79738 -69.2873,-88.14905 -19.5795,-24.35166 -31.9046,-29.6607 -47.6195,-62.32496 -32.5437,-67.64401 23.2261,-123.082197 64.2409,-26.04357 l 75.8157,-20.83486 c -48.2699,-230.386976 -351.3178,-144.27026 -218.766,81.6032 9.3903,16.00146 18.8668,27.548 42.4872,59.13077 23.6205,31.58278 54.6851,66.60514 75.577,94.81572 37.9983,51.30956 -46.6049,127.09794 -71.7645,24.30734 z"
       id="path3887"
       style="fill:#cb2821;fill-opacity:1;stroke:none"
       inkscape:connector-curvature="0" />
    <path
       d="m 1459.3332,553.73585 c 29.7321,-59.87337 19.9167,-176.24325 21.2803,-276.64309 -22.5704,1.8869 -47.3314,12.53595 -72.0254,22.91718 l -28.6465,-58.92989 c 32.7362,-13.08221 66.6327,-31.96639 97.398,-35.19424 5.4231,-61.23498 -2.5226,-129.454386 -7.3662,-194.796028 l 74.4808,-0.818471 c -2.4201,62.374536 -9.2789,123.861319 -1.6369,188.248259 35.1218,-16.96098 60.8726,-22.2081 87.5763,-28.64647 l -4.0923,72.02542 c -20.7924,2.01538 -44.8893,6.60086 -85.121,23.73565 7.8289,102.02405 19.4568,198.34966 36.0127,287.28321 z"
       id="path3897"
       style="fill:#cb2821;fill-opacity:1;stroke:none"
       inkscape:connector-curvature="0" />
    <path
       d="m 1558.3682,328.65641 c -13.5178,298.31894 204.7466,316.23134 198.8884,1.63694 -31.5877,-14.06469 -43.1094,-7.2887 -60.5668,-7.36623 49.2566,142.93115 -102.7357,208.37697 -76.1178,2.45541 -18.2989,6.33302 -37.3677,7.83616 -62.2038,3.27388 z"
       id="path3899"
       style="fill:#cb2821;fill-opacity:1;stroke:none"
       inkscape:connector-curvature="0" />
    <path
       d="m 1754.8012,552.91738 c 11.2188,-92.8034 13.6408,-192.20445 16.3694,-291.37557 -25.9182,1.19687 -51.8365,15.56753 -77.7547,24.55412 l -5.7293,-74.48083 c 35.9465,-11.50538 66.3552,-14.4081 89.2133,-17.18789 1.9248,-33.73967 5.5766,-57.11774 -0.8185,-140.776952 26.4113,-1.028999 52.6692,-2.671304 76.9363,-12.277061 -7.8643,50.98234 -17.621,103.383913 -17.1879,148.143193 24.6999,-6.46306 41.1722,-7.44107 59.7483,-9.82165 11.2572,-45.58755 5.8223,-97.851915 7.3663,-147.324721 29.6523,3.917366 49.0179,-5.023714 70.3884,-11.458589 -9.8918,51.468551 -26.8255,104.34549 -27.0095,153.87249 21.1614,-6.90412 42.9608,-11.89441 66.2961,-12.27706 l -7.3662,69.57001 c -25.5051,-2.02653 -49.5142,3.42674 -72.8439,12.27706 0.6741,102.58166 -3.2413,205.16332 13.914,307.74498 l -89.2133,0 c 16.9102,-96.58164 20.2282,-198.9885 22.0987,-302.01569 -18.896,-1.44691 -37.2908,-0.38806 -54.0191,9.00318 -2.2745,100.34509 -2.0172,199.17111 6.5478,293.01251 z"
       id="path3901"
       style="fill:#cb2821;fill-opacity:1;stroke:none"
       inkscape:connector-curvature="0" />
    <path
       d="m 2154.2149,316.37935 -5.7293,333.93605 c -3.4362,200.27771 -206.7395,139.07027 -211.1655,19.64329 l 73.6624,-15.55094 c 11.7855,72.04742 68.0737,36.32121 67.1146,4.91082 l -3.2739,-107.21966 c -246.4102,60.61944 -80.147,-332.223 5.7293,-203.7992 l -6.5478,-32.73883 z m -82.09,169.62931 a 38.196618,42.971194 0 1 1 3.403,-3.18222"
       style="fill:#cb2821;fill-opacity:1;stroke:none;fill-rule:evenodd"
       id="path3905" />
    <path
       d="m 2257.3422,334.38571 -4.9108,-29.46495 c 20.1889,5.45649 40.3779,5.45645 60.5668,0 1.8793,89.23616 8.2152,175.12981 18.8248,257.81827 l -59.7484,0.81847 -0.8184,-22.91718 c -99.7834,96.40184 -173.0636,-161.16548 -4.0924,-119.49672 -5.5725,-39.46952 -32.9296,-53.52367 -90.8502,-31.92036 l -13.0956,-52.38212 c 22.0135,-17.66874 50.3738,-23.91319 94.1242,-2.45541 z m -3.9371,178.29715 a 27.147726,30.541191 0 1 1 2.4186,-2.26172"
       style="fill:#cb2821;fill-opacity:1;stroke:none;fill-rule:evenodd"
       id="path3925" />
    <path
       d="m 2349.8294,561.10209 -15.551,-252.90745 71.207,-17.18788 1.6369,37.64965 c 48.5755,-37.4413 85.5134,-24.87932 121.1337,2.45541 l -36.8312,58.11142 c -123.4157,-50.34724 -79.2797,113.96342 -77.7547,171.06038 z"
       id="path3945"
       style="fill:#cb2821;fill-opacity:1;stroke:none"
       inkscape:connector-curvature="0" />
    <path
       d="m 2503.7019,552.91738 c 15.1284,-98.25176 31.4113,-195.8108 36.0127,-300.37874 -27.1808,-0.78262 -57.9415,6.7878 -91.6688,21.28023 l -3.2738,-76.93624 c 30.559,-6.00918 58.927,-6.5407 85.1209,-1.63694 l -9.0032,-129.318372 c 67.4053,-15.967069 68.2852,-26.612101 84.3025,-38.468123 -7.0462,53.417008 -18.1174,105.827785 -17.1879,161.238725 22.6444,-4.16878 45.2887,-14.34692 67.9331,-6.54776 l -0.8185,88.39483 c -22.3859,-9.2399 -43.8504,-20.78361 -70.3884,-19.6433 13.4337,100.94472 18.6929,201.88944 21.2802,302.83416 z"
       id="path3947"
       style="fill:#cb2821;fill-opacity:1;stroke:none"
       inkscape:connector-curvature="0" />
    <path
       d="m 2675.3267,549.66781 a 27.147726,30.541191 0 1 1 2.4186,-2.26172"
       id="path3863-6-8-2-4"
       style="fill:#4a192c;fill-opacity:1;fill-rule:nonzero;stroke:none"
       inkscape:connector-curvature="0" />
    <path
       d="m 2854.8258,555.37279 -63.8407,0.81847 -2.4554,-20.46176 c -107.521,98.99649 -131.4151,-233.11165 11.4585,-169.42344 l -0.8184,-291.375564 c -0.053,-18.751568 -6.6573,-36.803817 -18.0064,-53.200596 34.2463,6.86417 61.0434,9.959175 77.7547,1.636942 -3.0264,179.330128 -11.042,364.647218 -4.0923,532.005948 z m -65.3561,-87.97093 a 25.329021,28.495147 0 1 1 2.2566,-2.1102"
       style="fill:#de4c8a;fill-opacity:1;stroke:none;fill-rule:evenodd"
       id="path3967" />
    <path
       d="m 3020.1569,508.71996 -1.637,19.6433 c -3.6271,32.78723 -154.9986,57.29413 -155.5094,-70.38848 -0.5799,-144.95733 153.0462,-90.44992 155.5094,-37.64965 1.4537,31.16161 -8.78,42.28175 -27.8279,51.56366 -19.9035,9.6988 -73.6625,0.81846 -73.6625,0.81846 19.6759,41.01807 64.1951,34.08478 103.1274,36.01271 z m -53.4546,-68.72723 a 27.147726,30.541191 0 1 1 2.4186,-2.26172"
       style="fill:#4a192c;fill-opacity:1;stroke:none;fill-rule:evenodd"
       id="path3969" />
  </g>
</svg>
